# xmcd
#
# Track frame offsets: 
#        150
#        15710
#        35909
#        50906
#        65993
#        77818
#        92548
#        106486
#        118539
#        133339
#        146189
#        157417
#        171204
#        184765
#        197886
#        211011
#        223114
#        235335
#        248334
#        261047
#        273812
#        286703
#        300285
#        313058
#        326248
#
# Disc length: 4524 seconds
#
# Revision: 0
# Processed by: cddbd v1.5.1PL0 Copyright (c) Steve Scherf et al.
# Submitted via: ExactAudioCopy v0.95b3
#
DISCID=8011aa19
DTITLE=Big Bill Broonzy - Big Bill's Blues
DYEAR=2005
DGENRE=Blues
TTITLE0=Kind Hearted Blues
TTITLE1=Louise Louise Blues
TTITLE2=Make My Get Away
TTITLE3=Backwater Blues
TTITLE4=Trouble in Mind
TTITLE5=Do Right Blues
TTITLE6=Big Bill Blues
TTITLE7=Tucking Little Woman
TTITLE8=Southern lood Blues
TTITLE9=Just A Dream
TTITLE10=All By Myself
TTITLE11=Key to the Highway
TTITLE12=Looking Up At Down
TTITLE13=When I Had Been Drinking
TTITLE14=Keep Your Hands Off Her
TTITLE15=Trouble and Lying Woman
TTITLE16=Mississippi River Blues
TTITLE17=How You Want It Done?
TTITLE18=Long Tall Mama
TTITLE19=Night Time is The Right Time
TTITLE20=Night Watchman Blues
TTITLE21=Medicine Man Blues
TTITLE22=Rockin' Chair Blues
TTITLE23=New Shake 'Em On Down
TTITLE24=I'm Gonna Move To the Outskirts of Town
EXTD=
EXTT0=
EXTT1=
EXTT2=
EXTT3=
EXTT4=
EXTT5=
EXTT6=
EXTT7=
EXTT8=
EXTT9=
EXTT10=
EXTT11=
EXTT12=
EXTT13=
EXTT14=
EXTT15=
EXTT16=
EXTT17=
EXTT18=
EXTT19=
EXTT20=
EXTT21=
EXTT22=
EXTT23=
EXTT24=
PLAYORDER=
